<svg width="16" height="15" viewBox="0 0 16 15" fill="none" xmlns="http://www.w3.org/2000/svg">
<path d="M13.8332 9.58333C13.8332 9.58333 12.1666 11.3917 12.1666 12.5C12.1666 12.942 12.3421 13.366 12.6547 13.6785C12.9673 13.9911 13.3912 14.1667 13.8332 14.1667C14.2752 14.1667 14.6992 13.9911 15.0117 13.6785C15.3243 13.366 15.4999 12.942 15.4999 12.5C15.4999 11.3917 13.8332 9.58333 13.8332 9.58333ZM2.34155 8.33333L6.33322 4.34167L10.3249 8.33333M11.7999 7.45L4.34989 0L3.17489 1.175L5.15822 3.15833L0.866553 7.45C0.374886 7.91667 0.374886 8.725 0.866553 9.21667L5.44989 13.8C5.69155 14.0417 6.01655 14.1667 6.33322 14.1667C6.64989 14.1667 6.97489 14.0417 7.21655 13.8L11.7999 9.21667C12.2916 8.725 12.2916 7.91667 11.7999 7.45Z" fill="black"/>
</svg>
