<svg width="16" height="16" viewBox="0 0 16 16" fill="none" xmlns="http://www.w3.org/2000/svg">
<path d="M1.33334 2.16667C1.09723 2.16667 0.899447 2.08667 0.740003 1.92667C0.580559 1.76667 0.500558 1.56889 0.500003 1.33333C0.499447 1.09778 0.579447 0.9 0.740003 0.74C0.900559 0.58 1.09834 0.5 1.33334 0.5C1.56834 0.5 1.76639 0.58 1.9275 0.74C2.08861 0.9 2.16834 1.09778 2.16667 1.33333C2.165 1.56889 2.085 1.76694 1.92667 1.9275C1.76834 2.08806 1.57056 2.16778 1.33334 2.16667ZM4.66667 2.16667C4.43056 2.16667 4.23278 2.08667 4.07334 1.92667C3.91389 1.76667 3.83389 1.56889 3.83334 1.33333C3.83278 1.09778 3.91278 0.9 4.07334 0.74C4.23389 0.58 4.43167 0.5 4.66667 0.5C4.90167 0.5 5.09973 0.58 5.26084 0.74C5.42195 0.9 5.50167 1.09778 5.5 1.33333C5.49834 1.56889 5.41834 1.76694 5.26 1.9275C5.10167 2.08806 4.90389 2.16778 4.66667 2.16667ZM8 2.16667C7.76389 2.16667 7.56611 2.08667 7.40667 1.92667C7.24723 1.76667 7.16723 1.56889 7.16667 1.33333C7.16611 1.09778 7.24611 0.9 7.40667 0.74C7.56723 0.58 7.765 0.5 8 0.5C8.235 0.5 8.43306 0.58 8.59417 0.74C8.75528 0.9 8.835 1.09778 8.83334 1.33333C8.83167 1.56889 8.75167 1.76694 8.59334 1.9275C8.435 2.08806 8.23723 2.16778 8 2.16667ZM11.3333 2.16667C11.0972 2.16667 10.8994 2.08667 10.74 1.92667C10.5806 1.76667 10.5006 1.56889 10.5 1.33333C10.4994 1.09778 10.5794 0.9 10.74 0.74C10.9006 0.58 11.0983 0.5 11.3333 0.5C11.5683 0.5 11.7664 0.58 11.9275 0.74C12.0886 0.9 12.1683 1.09778 12.1667 1.33333C12.165 1.56889 12.085 1.76694 11.9267 1.9275C11.7683 2.08806 11.5706 2.16778 11.3333 2.16667ZM14.6667 2.16667C14.4306 2.16667 14.2328 2.08667 14.0733 1.92667C13.9139 1.76667 13.8339 1.56889 13.8333 1.33333C13.8328 1.09778 13.9128 0.9 14.0733 0.74C14.2339 0.58 14.4317 0.5 14.6667 0.5C14.9017 0.5 15.0997 0.58 15.2608 0.74C15.4219 0.9 15.5017 1.09778 15.5 1.33333C15.4983 1.56889 15.4183 1.76694 15.26 1.9275C15.1017 2.08806 14.9039 2.16778 14.6667 2.16667ZM1.33334 5.5C1.09723 5.5 0.899447 5.42 0.740003 5.26C0.580559 5.1 0.500558 4.90222 0.500003 4.66667C0.499447 4.43111 0.579447 4.23333 0.740003 4.07333C0.900559 3.91333 1.09834 3.83333 1.33334 3.83333C1.56834 3.83333 1.76639 3.91333 1.9275 4.07333C2.08861 4.23333 2.16834 4.43111 2.16667 4.66667C2.165 4.90222 2.085 5.10028 1.92667 5.26083C1.76834 5.42139 1.57056 5.50111 1.33334 5.5ZM14.6667 5.5C14.4306 5.5 14.2328 5.42 14.0733 5.26C13.9139 5.1 13.8339 4.90222 13.8333 4.66667C13.8328 4.43111 13.9128 4.23333 14.0733 4.07333C14.2339 3.91333 14.4317 3.83333 14.6667 3.83333C14.9017 3.83333 15.0997 3.91333 15.2608 4.07333C15.4219 4.23333 15.5017 4.43111 15.5 4.66667C15.4983 4.90222 15.4183 5.10028 15.26 5.26083C15.1017 5.42139 14.9039 5.50111 14.6667 5.5ZM1.33334 8.83333C1.09723 8.83333 0.899447 8.75333 0.740003 8.59333C0.580559 8.43333 0.500558 8.23556 0.500003 8C0.499447 7.76444 0.579447 7.56667 0.740003 7.40667C0.900559 7.24667 1.09834 7.16667 1.33334 7.16667C1.56834 7.16667 1.76639 7.24667 1.9275 7.40667C2.08861 7.56667 2.16834 7.76444 2.16667 8C2.165 8.23556 2.085 8.43361 1.92667 8.59417C1.76834 8.75472 1.57056 8.83444 1.33334 8.83333ZM14.6667 8.83333C14.4306 8.83333 14.2328 8.75333 14.0733 8.59333C13.9139 8.43333 13.8339 8.23556 13.8333 8C13.8328 7.76444 13.9128 7.56667 14.0733 7.40667C14.2339 7.24667 14.4317 7.16667 14.6667 7.16667C14.9017 7.16667 15.0997 7.24667 15.2608 7.40667C15.4219 7.56667 15.5017 7.76444 15.5 8C15.4983 8.23556 15.4183 8.43361 15.26 8.59417C15.1017 8.75472 14.9039 8.83444 14.6667 8.83333ZM1.33334 12.1667C1.09723 12.1667 0.899447 12.0867 0.740003 11.9267C0.580559 11.7667 0.500558 11.5689 0.500003 11.3333C0.499447 11.0978 0.579447 10.9 0.740003 10.74C0.900559 10.58 1.09834 10.5 1.33334 10.5C1.56834 10.5 1.76639 10.58 1.9275 10.74C2.08861 10.9 2.16834 11.0978 2.16667 11.3333C2.165 11.5689 2.085 11.7669 1.92667 11.9275C1.76834 12.0881 1.57056 12.1678 1.33334 12.1667ZM14.6667 12.1667C14.4306 12.1667 14.2328 12.0867 14.0733 11.9267C13.9139 11.7667 13.8339 11.5689 13.8333 11.3333C13.8328 11.0978 13.9128 10.9 14.0733 10.74C14.2339 10.58 14.4317 10.5 14.6667 10.5C14.9017 10.5 15.0997 10.58 15.2608 10.74C15.4219 10.9 15.5017 11.0978 15.5 11.3333C15.4983 11.5689 15.4183 11.7669 15.26 11.9275C15.1017 12.0881 14.9039 12.1678 14.6667 12.1667ZM1.33334 15.5C1.09723 15.5 0.899447 15.42 0.740003 15.26C0.580559 15.1 0.500558 14.9022 0.500003 14.6667C0.499447 14.4311 0.579447 14.2333 0.740003 14.0733C0.900559 13.9133 1.09834 13.8333 1.33334 13.8333C1.56834 13.8333 1.76639 13.9133 1.9275 14.0733C2.08861 14.2333 2.16834 14.4311 2.16667 14.6667C2.165 14.9022 2.085 15.1003 1.92667 15.2608C1.76834 15.4214 1.57056 15.5011 1.33334 15.5ZM4.66667 15.5C4.43056 15.5 4.23278 15.42 4.07334 15.26C3.91389 15.1 3.83389 14.9022 3.83334 14.6667C3.83278 14.4311 3.91278 14.2333 4.07334 14.0733C4.23389 13.9133 4.43167 13.8333 4.66667 13.8333C4.90167 13.8333 5.09973 13.9133 5.26084 14.0733C5.42195 14.2333 5.50167 14.4311 5.5 14.6667C5.49834 14.9022 5.41834 15.1003 5.26 15.2608C5.10167 15.4214 4.90389 15.5011 4.66667 15.5ZM8 15.5C7.76389 15.5 7.56611 15.42 7.40667 15.26C7.24723 15.1 7.16723 14.9022 7.16667 14.6667C7.16611 14.4311 7.24611 14.2333 7.40667 14.0733C7.56723 13.9133 7.765 13.8333 8 13.8333C8.235 13.8333 8.43306 13.9133 8.59417 14.0733C8.75528 14.2333 8.835 14.4311 8.83334 14.6667C8.83167 14.9022 8.75167 15.1003 8.59334 15.2608C8.435 15.4214 8.23723 15.5011 8 15.5ZM11.3333 15.5C11.0972 15.5 10.8994 15.42 10.74 15.26C10.5806 15.1 10.5006 14.9022 10.5 14.6667C10.4994 14.4311 10.5794 14.2333 10.74 14.0733C10.9006 13.9133 11.0983 13.8333 11.3333 13.8333C11.5683 13.8333 11.7664 13.9133 11.9275 14.0733C12.0886 14.2333 12.1683 14.4311 12.1667 14.6667C12.165 14.9022 12.085 15.1003 11.9267 15.2608C11.7683 15.4214 11.5706 15.5011 11.3333 15.5ZM14.6667 15.5C14.4306 15.5 14.2328 15.42 14.0733 15.26C13.9139 15.1 13.8339 14.9022 13.8333 14.6667C13.8328 14.4311 13.9128 14.2333 14.0733 14.0733C14.2339 13.9133 14.4317 13.8333 14.6667 13.8333C14.9017 13.8333 15.0997 13.9133 15.2608 14.0733C15.4219 14.2333 15.5017 14.4311 15.5 14.6667C15.4983 14.9022 15.4183 15.1003 15.26 15.2608C15.1017 15.4214 14.9039 15.5011 14.6667 15.5Z" fill="black"/>
</svg>
